#!OML:ASF E:\Steps\Project 1\Capture day 1\Session 2\Subject.ASF
:FULLY-SPECIFIED
:DEGREES
922
root 9.31594 22.6126 -14.3779 -154.602 -2.53445 177.536
lowerback -31.6955 -1.42872 -7.35321
upperback -2.63811 -0.242492 -0.353589
thorax 13.4936 -0.928154 3.38388
lowerneck -1.14556 -2.03424 -3.18476
upperneck -0.527148 -2.72992 5.529
head 0.158947 -1.3755 2.26334
rclavicle 6.55989e-015 7.35503e-015
rhumerus -34.0452 -16.0082 -79.5029
rradius 30.743
rwrist -2.48748
rhand -10.2322 -50.9612
rfingers 7.12502
rthumb 15.7601 -80.3396
lclavicle 6.55989e-015 7.35503e-015
lhumerus -28.6598 2.58602 82.2059
lradius 21.345
lwrist -5.82856
lhand -19.237 -12.8584
lfingers 7.12502
lthumb 7.07639 17.0033
rfemur -19.9798 6.00553 18.1774
rtibia 4.4282
rfoot -17.1756 -4.69253
rtoes -27.7052
lfemur -21.64 -8.95551 -22.0951
ltibia 8.44495
lfoot -8.31311 -1.53942
ltoes -38.3856
923
root 9.31557 22.6126 -14.3793 -154.601 -2.55446 177.531
lowerback -31.6319 -1.42437 -7.36174
upperback -2.69545 -0.248947 -0.365856
thorax 13.4002 -0.930382 3.37287
lowerneck -1.11009 -2.05995 -3.25948
upperneck -0.688306 -2.75989 5.59105
head 0.106105 -1.39286 2.29852
rclavicle -4.12478e-015 2.28602e-014
rhumerus -34.1895 -16.1008 -79.4345
rradius 30.6097
rwrist -2.34534
rhand -10.4476 -50.6704
rfingers 7.12502
rthumb 15.5526 -80.065
lclavicle -4.12478e-015 2.28602e-014
lhumerus -28.7562 2.86596 82.1767
lradius 21.7524
lwrist -6.18078
lhand -19.2654 -12.7997
lfingers 7.12502
lthumb 7.049 17.063
rfemur -19.9698 5.95668 18.1851
rtibia 4.43101
rfoot -17.1627 -4.65688
rtoes -27.6469
lfemur -21.6354 -8.93856 -22.1107
ltibia 8.45335
lfoot -8.3455 -1.52429
ltoes -39.0183
924
root 9.31639 22.6129 -14.3827 -154.636 -2.56663 177.532
lowerback -31.5571 -1.44397 -7.38582
upperback -2.77866 -0.289263 -0.372094
thorax 13.2755 -0.949209 3.36306
lowerneck -0.980651 -2.03674 -3.29917
upperneck -0.849486 -2.72713 5.65874
head 0.0337008 -1.3804 2.33099
rclavicle -1.3418e-014 7.95139e-015
rhumerus -34.3834 -16.0691 -79.4127
rradius 30.4855
rwrist -2.24703
rhand -10.4594 -50.6754
rfingers 7.12502
rthumb 15.5412 -80.0709
lclavicle -1.3418e-014 7.95139e-015
lhumerus -28.9894 3.1083 82.1242
lradius 22.2094
lwrist -6.44309
lhand -19.3162 -13.0075
lfingers 7.12502
lthumb 6.99989 16.8567
rfemur -19.9264 6.00795 18.1836
rtibia 4.45781
rfoot -17.203 -4.69418
rtoes -27.5248
lfemur -21.5503 -8.95821 -22.108
ltibia 8.42081
lfoot -8.26125 -1.50515
ltoes -38.3496
925
root 9.3168 22.6132 -14.3876 -154.697 -2.56634 177.553
lowerback -31.5431 -1.46133 -7.4028
upperback -2.71338 -0.292865 -0.347389
thorax 13.3459 -0.95008 3.39893
lowerneck -1.18988 -2.0104 -3.39371
upperneck -0.959195 -2.6869 5.78837
head 0.0366862 -1.36008 2.38969
rclavicle 8.17502e-015 -1.47101e-014
rhumerus -34.2883 -16.0818 -79.4025
rradius 30.4121
rwrist -2.2428
rhand -10.3215 -51.0457
rfingers 7.12502
rthumb 15.6741 -80.4308
lclavicle 8.17502e-015 -1.47101e-014
lhumerus -28.8891 2.84317 82.34
lradius 22.5358
lwrist -6.14305
lhand -19.6448 -13.2226
lfingers 7.12502
lthumb 6.68274 16.6519
rfemur -19.8124 6.0498 18.2149
rtibia 4.41853
rfoot -17.2346 -4.71656
rtoes -27.4096
lfemur -21.4096 -9.00239 -22.0748
ltibia 8.32894
lfoot -8.18614 -1.49653
ltoes -36.635
926
root 9.31829 22.6123 -14.3931 -154.674 -2.5284 177.569
lowerback -31.6222 -1.46993 -7.43285
upperback -2.69438 -0.287048 -0.34321
thorax 13.4005 -0.951702 3.42041
lowerneck -1.2218 -2.00194 -3.4111
upperneck -1.04859 -2.67479 5.88015
head 0.0152507 -1.35589 2.42362
rclavicle -1.36167e-014 7.55382e-015
rhumerus -34.2686 -16.1654 -79.3783
rradius 30.3216
rwrist -2.24087
rhand -10.2785 -51.1071
rfingers 7.12502
rthumb 15.7154 -80.489
lclavicle -1.36167e-014 7.55382e-015
lhumerus -28.8029 2.34598 82.5756
lradius 22.6246
lwrist -5.61441
lhand -20.0718 -13.4121
lfingers 7.12502
lthumb 6.27045 16.4751
rfemur -19.8399 6.15718 18.2125
rtibia 4.44063
rfoot -17.2483 -4.78141
rtoes -27.3489
lfemur -21.3928 -9.00537 -22.0362
ltibia 8.25101
lfoot -8.21439 -1.4709
ltoes -36.5583
927
root 9.32019 22.6109 -14.3964 -154.616 -2.50088 177.552
lowerback -31.6668 -1.48366 -7.49206
upperback -2.70982 -0.285775 -0.357017
thorax 13.4 -0.956415 3.43618
lowerneck -1.26783 -2.07695 -3.45741
upperneck -1.0854 -2.77377 5.93969
head 0.0182149 -1.40564 2.45073
rclavicle -1.66979e-014 4.19436e-014
rhumerus -34.2802 -16.3832 -79.2929
rradius 30.1471
rwrist -2.041
rhand -10.1425 -51.0471
rfingers 7.12502
rthumb 15.8464 -80.4186
lclavicle -1.66979e-014 4.19436e-014
lhumerus -28.7251 1.53592 82.8959
lradius 22.7498
lwrist -4.77138
lhand -20.2093 -13.3865
lfingers 7.12502
lthumb 6.13779 16.5046
rfemur -19.9363 6.24137 18.1661
rtibia 4.49642
rfoot -17.2561 -4.84839
rtoes -27.3356
lfemur -21.4704 -8.96089 -22.0382
ltibia 8.29643
lfoot -8.28874 -1.52317
ltoes -37.2566
